# AST/ASF file generated using VICON BodyLanguage
# -----------------------------------------------
:version 1.10
:name VICON
:units
  mass 1.0
  length 0.45
  angle deg
:documentation
   .ast/.asf automatically generated from VICON data using
   VICON BodyBuilder and BodyLanguage model FoxedUp or BRILLIANT.MOD
:root
   order TX TY TZ RX RY RZ
   axis XYZ
   position 0 0 0  
   orientation 0 0 0 
:bonedata
  begin
     id 1 
     name lhipjoint
     direction 0.567725 -0.736092 0.368589 
     length 2.42353 
     axis 0 0 0  XYZ
  end
  begin
     id 2 
     name lfemur
     direction 0.34202 -0.939693 0  
     length 7.24894  
     axis 0 0 20  XYZ
    dof rx ry rz
    limits (-160.0 20.0)
           (-70.0 70.0)
           (-60.0 70.0)
  end
  begin
     id 3 
     name ltibia
     direction 0.34202 -0.939693 0   
     length 7.6997   
     axis 0 0 20   XYZ
    dof rx
    limits (-10.0 170.0)
  end
  begin
     id 4 
     name lfoot
     direction 0.100767 -0.276854 0.955614   
     length 2.37556   
     axis -90 7.62852e-016 20   XYZ
    dof rx rz
    limits (-45.0 90.0)
           (-70.0 20.0)
  end
  begin
     id 5 
     name ltoes
     direction 1.53592e-011 -4.21894e-011 1   
     length 1.18363   
     axis -90 7.62852e-016 20   XYZ
    dof rx
    limits (-90.0 20.0)
  end
  begin
     id 6 
     name rhipjoint
     direction -0.556459 -0.742938 0.372017   
     length 2.4012  
     axis 0 0 0  XYZ 
  end
  begin
     id 7 
     name rfemur
     direction -0.34202 -0.939693 0   
     length 7.5119   
     axis 0 0 -20   XYZ
    dof rx ry rz
    limits (-160.0 20.0)
           (-70.0 70.0)
           (-70.0 60.0)
  end
  begin
     id 8 
     name rtibia
     direction -0.34202 -0.939693 0   
     length 7.50155   
     axis 0 0 -20   XYZ
    dof rx
    limits (-10.0 170.0)
 end
 begin
     id 9 
     name rfoot
     direction -0.118427 -0.325376 0.938139   
     length 2.32487  
     axis -90 -7.62852e-016 -20   XYZ
    dof rx rz
    limits (-45.0 90.0)
           (-20.0 70.0)
  end
  begin
     id 10 
     name rtoes
     direction -1.53525e-011 -4.21868e-011 1   
     length 1.15233   
     axis -90 -7.62852e-016 -20   XYZ
    dof rx
    limits (-90.0 20.0)
  end
  begin
     id 11 
     name lowerback
     direction 0.0287568 0.999577 -0.00434502   
     length 2.15243   
     axis 0 0 0   XYZ
    dof rx ry rz
    limits (-20.0 45.0)
           (-30.0 30.0)
           (-30.0 30.0)
  end
  begin
     id 12 
     name upperback
     direction 0.0294009 0.99956 0.00404628   
     length 2.15427   
     axis 0 0 0   XYZ
    dof rx ry rz
    limits (-20.0 45.0)
           (-30.0 30.0)
           (-30.0 30.0)
  end
  begin
     id 13 
     name thorax
     direction 0.0151014 0.999868 0.0059419   
     length 2.14898   
     axis 0 0 0   XYZ
    dof rx ry rz
    limits (-20.0 45.0)
           (-30.0 30.0)
           (-30.0 30.0)
  end
  begin
     id 14 
     name lowerneck
     direction -0.0249197 0.989906 0.139515   
     length 1.6861   
     axis 0 0 0   XYZ
    dof rx ry rz
    limits (-20.0 45.0)
           (-30.0 30.0)
           (-30.0 30.0)
  end
  begin
     id 15 
     name upperneck
     direction 0.0438463 0.988795 -0.142693   
     length 1.71276   
     axis 0 0 0   XYZ
    dof rx ry rz
    limits (-20.0 45.0)
           (-30.0 30.0)
           (-30.0 30.0)
  end
  begin
     id 16
     name head
     direction 0.0148499 0.997845 -0.0639186  
     length 1.7209  
     axis 0 0 0   XYZ
    dof rx ry rz
    limits (-20.0 45.0)
           (-30.0 30.0)
           (-30.0 30.0)
  end
  begin
     id 17 
     name lclavicle
     direction 0.940298 0.323464 -0.105876  
     length 3.9048  
     axis 0 0 0   XYZ
    dof ry rz
    limits (-20.0 10.0)
           (0.0 20.0)
  end
  begin
     id 18 
     name lhumerus
     direction 1 -4.48954e-011 -4.9675e-028   
     length 4.6851   
     axis 180 -30 -90   XYZ
    dof rx ry rz
    limits (-60.0 90.0)
           (-90.0 90.0)
           (-90.0 90.0)
  end
  begin
     id 19
     name lradius
     direction 1 -4.48992e-011 -1.03359e-026   
     length 3.39626   
     axis 180 -30 -90   XYZ
    dof rx
    limits (-10.0 170.0)
  end
  begin
     id 20
     name lwrist
     direction 1 -4.48906e-011 -1.67336e-026   
     length 1.69813   
     axis 9.90442e-015 90 90   XYZ
    dof ry
    limits (-180.0 0.0)
 end
  begin
     id 21 
     name lhand
     direction 1 -4.49006e-011 -3.34673e-026   
     length 0.486078   
     axis 2.1355e-014 90 90   XYZ
    dof rx rz
    limits (-90.0 90.0)
           (-45.0 45.0)
  end
  begin
     id 22 
     name lfingers
     direction 1 -4.48992e-011 -6.69345e-026   
     length 0.391889   
     axis 4.27099e-014 90 90   XYZ
    dof rx
    limits (0.0 90.0)
  end
  begin
     id 23
     name lthumb
     direction 0.707107 -6.34926e-011 0.707107   
     length 0.562676   
     axis -90 45 2.85299e-015   XYZ
    dof rx rz
    limits (-45.0 45.0)
           (-45.0 45.0)
  end
  begin
     id 24 
     name rclavicle
     direction -0.882459 0.414895 -0.221648   
     length 3.44646  
     axis 0 0 0   XYZ 
    dof ry rz
    limits (-10.0 20.0)
           (-20.0 0.0)
  end
  begin
     id 25 
     name rhumerus
     direction -1 -4.48962e-011 -2.37984e-027  
     length 5.55576   
     axis 180 30 90   XYZ
    dof rx ry rz
    limits (-90.0 60.0)
           (-90.0 90.0)
           (-90.0 90.0)
  end
  begin
     id 26 
     name rradius
     direction -1 -4.48982e-011 -6.86791e-027   
     length 3.32774   
     axis 180 30 90   XYZ
    dof rx
    limits (-10.0 170.0)
  end
  begin
     id 27 
     name rwrist
     direction -1 -4.48961e-011 -1.67336e-026   
     length 1.66387   
     axis 9.90442e-015 -90 -90   XYZ
    dof ry
    limits (-180.0 0.0)
  end
  begin
     id 28
     name rhand
     direction -1 -4.4897e-011 -3.34673e-026   
     length 0.507628   
     axis 2.1355e-014 -90 -90   XYZ
    dof rx rz
    limits (-90.0 90.0)
           (-45.0 45.0)
  end
  begin
     id 29
     name rfingers
     direction -1 -4.48854e-011 -6.69345e-026   
     length 0.409263   
     axis 4.27099e-014 -90 -90   XYZ
    dof rx
    limits (0.0 90.0)
  end
  begin
     id 30
     name rthumb
     direction -0.707107 -6.34913e-011 0.707107   
     length 0.587622   
     axis -90 -45 -2.85299e-015   XYZ
    dof rx rz
    limits (-45.0 45.0)
           (-45.0 45.0)
  end
:hierarchy
  begin
    root lhipjoint rhipjoint lowerback
    lhipjoint lfemur
    lfemur ltibia
    ltibia lfoot
    lfoot ltoes
    rhipjoint rfemur
    rfemur rtibia
    rtibia rfoot
    rfoot rtoes
    lowerback upperback
    upperback thorax
    thorax lowerneck lclavicle rclavicle
    lowerneck upperneck
    upperneck head
    lclavicle lhumerus
    lhumerus lradius
    lradius lwrist
    lwrist lhand lthumb
    lhand lfingers
    rclavicle rhumerus
    rhumerus rradius
    rradius rwrist
    rwrist rhand rthumb
    rhand rfingers
  end

#!OML:ASF E:\motion texture\Top Level 1\Subject 1\Session 1\male.ASF
:FULLY-SPECIFIED
:DEGREES
30
root 42.7463 17.9424 6.11479 146.6 -84.2494 -137.405
lowerback -3.33232 -0.910048 2.13632
upperback -3.69151 -1.3383 3.5351
thorax -1.88949 -0.728432 2.4179
lowerneck -11.2975 -7.49995 -10.7574
upperneck 15.9086 -9.4812 5.85084
head 7.55218 -4.74071 2.67043
rclavicle 1.41898e-014 7.95139e-015
rhumerus -29.9747 -8.07024 -76.2775
rradius 22.5097
rwrist 13.7013
rhand -11.1826 -23.4722
rfingers 7.12502
rthumb 14.8445 -52.9205
lclavicle 1.41898e-014 7.95139e-015
lhumerus -34.7026 17.5845 79.2437
lradius 25.2614
lwrist -28.7025
lhand -13.7275 18.1593
lfingers 7.12502
lthumb 12.3918 47.7721
rfemur -9.25859 3.16477 26.2067
rtibia 15.3084
rfoot -10.33 -14.9165
rtoes 11.9298
lfemur -5.82349 -5.01971 -14.977
ltibia 9.26807
lfoot -9.81904 3.03488
ltoes 4.70627
31
root 42.7432 17.9419 6.11052 146.84 -84.2463 -137.6
lowerback -3.32707 -0.910603 2.15377
upperback -3.65355 -1.33995 3.55792
thorax -1.8531 -0.729099 2.43105
lowerneck -11.3163 -7.48357 -10.702
upperneck 15.8681 -9.44486 5.75444
head 7.53149 -4.72698 2.6343
rclavicle -7.98866e-015 4.13472e-014
rhumerus -29.9403 -8.10647 -76.2528
rradius 22.5066
rwrist 13.7193
rhand -11.2025 -23.4856
rfingers 7.12502
rthumb 14.8254 -52.9352
lclavicle -7.98866e-015 4.13472e-014
lhumerus -34.6658 17.5367 79.2799
lradius 25.3244
lwrist -28.6534
lhand -13.7547 18.1573
lfingers 7.12502
lthumb 12.3656 47.7715
rfemur -9.2972 3.17505 26.2053
rtibia 15.3053
rfoot -10.3274 -14.9079
rtoes 11.9573
lfemur -5.8718 -4.99468 -14.9699
ltibia 9.2895
lfoot -9.83663 3.03141
ltoes 4.68356
32
root 42.74 17.9414 6.10612 147.093 -84.2421 -137.807
lowerback -3.32462 -0.909652 2.17084
upperback -3.61198 -1.3398 3.5807
thorax -1.81146 -0.728811 2.44427
lowerneck -11.3441 -7.46839 -10.6435
upperneck 15.8285 -9.40957 5.65711
head 7.51264 -4.71342 2.59699
rclavicle 2.29224e-015 2.22639e-014
rhumerus -29.8988 -8.1471 -76.2281
rradius 22.5038
rwrist 13.7378
rhand -11.2265 -23.5018
rfingers 7.12502
rthumb 14.8023 -52.9532
lclavicle 2.29224e-015 2.22639e-014
lhumerus -34.6234 17.495 79.3115
lradius 25.3803
lwrist -28.61
lhand -13.7784 18.1568
lfingers 7.12502
lthumb 12.3428 47.7724
rfemur -9.33575 3.18587 26.2039
rtibia 15.3028
rfoot -10.3256 -14.8978
rtoes 11.9842
lfemur -5.9206 -4.96787 -14.9627
ltibia 9.31303
lfoot -9.85598 3.02826
ltoes 4.65648
33
root 42.7366 17.9409 6.10159 147.347 -84.2364 -138.015
lowerback -3.32434 -0.908021 2.18794
upperback -3.56967 -1.33893 3.60465
thorax -1.76785 -0.728165 2.45863
lowerneck -11.3697 -7.45308 -10.5848
upperneck 15.7866 -9.37446 5.55991
head 7.4927 -4.69996 2.55978
rclavicle 2.49288e-014 -1.82882e-014
rhumerus -29.8556 -8.18829 -76.2022
rradius 22.501
rwrist 13.7556
rhand -11.251 -23.5212
rfingers 7.12502
rthumb 14.7787 -52.9743
lclavicle 2.49288e-014 -1.82882e-014
lhumerus -34.5823 17.4629 79.3362
lradius 25.429
lwrist -28.5764
lhand -13.7971 18.1583
lfingers 7.12502
lthumb 12.3248 47.7751
rfemur -9.37385 3.19682 26.2038
rtibia 15.3004
rfoot -10.3243 -14.886
rtoes 12.0127
lfemur -5.9698 -4.93991 -14.9542
ltibia 9.33856
lfoot -9.87691 3.02556
ltoes 4.62869
34
root 42.733 17.9403 6.09693 147.615 -84.2294 -138.236
lowerback -3.32601 -0.908181 2.20452
upperback -3.53018 -1.34059 3.63062
thorax -1.72594 -0.728828 2.47536
lowerneck -11.382 -7.43348 -10.5305
upperneck 15.7412 -9.33451 5.46426
head 7.46927 -4.68465 2.52484
rclavicle 8.38623e-015 -2.22639e-014
rhumerus -29.8163 -8.22047 -76.1766
rradius 22.4989
rwrist 13.7735
rhand -11.272 -23.5373
rfingers 7.12502
rthumb 14.7585 -52.9919
lclavicle 8.38623e-015 -2.22639e-014
lhumerus -34.5541 17.4443 79.3497
lradius 25.4736
lwrist -28.5484
lhand -13.8133 18.1571
lfingers 7.12502
lthumb 12.3091 47.7748
rfemur -9.41167 3.20776 26.2036
rtibia 15.2984
rfoot -10.3236 -14.8719
rtoes 12.0419
lfemur -6.01938 -4.91073 -14.9457
ltibia 9.3663
lfoot -9.89916 3.02348
ltoes 4.60213
35
root 42.7293 17.9397 6.09216 147.888 -84.2213 -138.463
lowerback -3.32763 -0.909822 2.22066
upperback -3.49445 -1.34427 3.6588
thorax -1.68784 -0.73055 2.49466
lowerneck -11.382 -7.40973 -10.4797
upperneck 15.6923 -9.2899 5.36977
head 7.44246 -4.66751 2.49184
rclavicle 8.44835e-016 2.62396e-014
rhumerus -29.7819 -8.24305 -76.1508
rradius 22.4977
rwrist 13.79
rhand -11.2928 -23.5524
rfingers 7.12502
rthumb 14.7384 -53.0084
lclavicle 8.44835e-016 2.62396e-014
lhumerus -34.539 17.437 79.3536
lradius 25.514
lwrist -28.5269
lhand -13.8242 18.1577
lfingers 7.12502
lthumb 12.2986 47.776
rfemur -9.44943 3.21881 26.2039
rtibia 15.2965
rfoot -10.3235 -14.8562
rtoes 12.0695
lfemur -6.07012 -4.88035 -14.9367
ltibia 9.39716
lfoot -9.92448 3.0223
ltoes 4.57053
36
root 42.7253 17.9391 6.08725 148.165 -84.2121 -138.693
lowerback -3.32458 -0.910988 2.23544
upperback -3.46196 -1.34707 3.68893
thorax -1.65564 -0.731857 2.51692
lowerneck -11.3828 -7.38492 -10.4279
upperneck 15.6461 -9.2438 5.27277
head 7.41645 -4.64984 2.45802
rclavicle -6.99474e-015 -1.35174e-014
rhumerus -29.7512 -8.26233 -76.1225
rradius 22.4981
rwrist 13.8048
rhand -11.3165 -23.5639
rfingers 7.12502
rthumb 14.7156 -53.0216
lclavicle -6.99474e-015 -1.35174e-014
lhumerus -34.5322 17.4374 79.3513
lradius 25.5496
lwrist -28.5141
lhand -13.8312 18.1578
lfingers 7.12502
lthumb 12.2919 47.7765
rfemur -9.48726 3.23002 26.2049
rtibia 15.2962
rfoot -10.3255 -14.8392
rtoes 12.0972
lfemur -6.12192 -4.84916 -14.927
ltibia 9.43113
lfoot -9.95212 3.02175
ltoes 4.53699
37
root 42.7211 17.9384 6.08221 148.443 -84.2016 -138.925
lowerback -3.31697 -0.910357 2.25013
upperback -3.43057 -1.34727 3.71958
thorax -1.62719 -0.731875 2.53993
lowerneck -11.3929 -7.3609 -10.3723
upperneck 15.605 -9.19836 5.17319
head 7.39355 -4.63231 2.42233
rclavicle -4.91992e-015 -1.19271e-014
rhumerus -29.7204 -8.2843 -76.0925
rradius 22.4997
rwrist 13.8183
rhand -11.3409 -23.5774
rfingers 7.12502
rthumb 14.6921 -53.0369
lclavicle -4.91992e-015 -1.19271e-014
lhumerus -34.5257 17.4427 79.3446
lradius 25.5776
lwrist -28.5113
lhand -13.8334 18.1573
lfingers 7.12502
lthumb 12.2897 47.7761
rfemur -9.52397 3.24022 26.2069
rtibia 15.2951
rfoot -10.327 -14.8193
rtoes 12.126
lfemur -6.17443 -4.81609 -14.9163
ltibia 9.46859
lfoot -9.98143 3.02119
ltoes 4.50247
38
root 42.7167 17.9377 6.07701 148.735 -84.1895 -139.169
lowerback -3.30986 -0.90917 2.26493
upperback -3.39993 -1.34679 3.7503
thorax -1.59926 -0.731578 2.56298
lowerneck -11.4013 -7.33546 -10.3152
upperneck 15.5632 -9.15163 5.074
head 7.37005 -4.6141 2.38677
rclavicle 7.78987e-015 -3.97569e-014
rhumerus -29.6903 -8.30664 -76.0623
rradius 22.5017
rwrist 13.834
rhand -11.3655 -23.5971
rfingers 7.12502
rthumb 14.6684 -53.0582
lclavicle 7.78987e-015 -3.97569e-014
lhumerus -34.5237 17.4537 79.3313
lradius 25.6011
lwrist -28.517
lhand -13.8261 18.163
lfingers 7.12502
lthumb 12.2968 47.7814
rfemur -9.56058 3.25088 26.2091
rtibia 15.2949
rfoot -10.3301 -14.7976
rtoes 12.1539
lfemur -6.22831 -4.78158 -14.9054
ltibia 9.51005
lfoot -10.0134 3.02189
ltoes 4.4648
39
root 42.7121 17.9369 6.07166 149.028 -84.1756 -139.415
lowerback -3.3049 -0.908182 2.28015
upperback -3.37084 -1.34674 3.78214
thorax -1.57169 -0.731544 2.58693
lowerneck -11.4011 -7.3074 -10.259
upperneck 15.5171 -9.10244 4.97687
head 7.3437 -4.59474 2.35266
rclavicle 1.2921e-014 -2.22639e-014
rhumerus -29.6624 -8.32353 -76.0333
rradius 22.506
rwrist 13.8467
rhand -11.3908 -23.6242
rfingers 7.12502
rthumb 14.644 -53.0871
lclavicle 1.2921e-014 -2.22639e-014
lhumerus -34.5292 17.4713 79.3114
lradius 25.6202
lwrist -28.5293
lhand -13.8166 18.1668
lfingers 7.12502
lthumb 12.3059 47.7847
rfemur -9.59697 3.26108 26.2126
rtibia 15.2952
rfoot -10.3334 -14.7732
rtoes 12.1786
lfemur -6.2837 -4.74613 -14.8932
ltibia 9.55579
lfoot -10.0482 3.02317
ltoes 4.42634
40
root 42.7073 17.9361 6.06613 149.325 -84.1599 -139.665
lowerback -3.3002 -0.905218 2.29518
upperback -3.3404 -1.34412 3.81402
thorax -1.54265 -0.730212 2.61106
lowerneck -11.407 -7.28002 -10.199
upperneck 15.4722 -9.05432 4.87953
head 7.31877 -4.57556 2.31756
rclavicle -1.717e-014 3.97569e-014
rhumerus -29.6322 -8.34412 -76.0032
rradius 22.5112
rwrist 13.8585
rhand -11.4184 -23.6343
rfingers 7.12502
rthumb 14.6174 -53.0991
lclavicle -1.717e-014 3.97569e-014
lhumerus -34.5326 17.4921 79.2887
lradius 25.6343
lwrist -28.5524
lhand -13.8003 18.1711
lfingers 7.12502
lthumb 12.3216 47.788
rfemur -9.63273 3.27182 26.2174
rtibia 15.296
rfoot -10.3378 -14.7471
rtoes 12.2033
lfemur -6.34102 -4.7096 -14.8797
ltibia 9.60751
lfoot -10.0877 3.02593
ltoes 4.38341
